<?xml version="1.0" encoding="UTF-8" standalone="no" ?>
<!DOCTYPE svg PUBLIC "-//W3C//DTD SVG 1.1//EN" "http://www.w3.org/Graphics/SVG/1.1/DTD/svg11.dtd">
<svg xmlns="http://www.w3.org/2000/svg" xmlns:xlink="http://www.w3.org/1999/xlink" version="1.1" width="1080" height="1080" viewBox="0 0 1080 1080" xml:space="preserve">
<desc>Created with Fabric.js 5.2.4</desc>
<defs>
</defs>
<rect x="0" y="0" width="100%" height="100%" fill="transparent"></rect>
<g transform="matrix(1 0 0 1 540 540)" id="d8bb10fa-a026-43d8-9099-cba17ad9d0df"  >
</g>
<g transform="matrix(1 0 0 1 540 540)" id="a4acb8f8-6232-4854-b242-f5d1e85dcdbc"  >
<rect style="stroke: none; stroke-width: 1; stroke-dasharray: none; stroke-linecap: butt; stroke-dashoffset: 0; stroke-linejoin: miter; stroke-miterlimit: 4; fill: rgb(255,255,255); fill-rule: nonzero; opacity: 1; visibility: hidden;" vector-effect="non-scaling-stroke"  x="-540" y="-540" rx="0" ry="0" width="1080" height="1080" />
</g>
<g transform="matrix(1 0 0 1 540 540)"  >
<g style="" vector-effect="non-scaling-stroke"   >
		<g transform="matrix(33.33 0 0 33.33 0 0)"  >
<path style="stroke: none; stroke-width: 1; stroke-dasharray: none; stroke-linecap: butt; stroke-dashoffset: 0; stroke-linejoin: miter; stroke-miterlimit: 4; fill: rgb(255,255,255); fill-rule: nonzero; opacity: 1;" vector-effect="non-scaling-stroke"  transform=" translate(-12, -12)" d="M 18.44 3.06 L 5.56 3.06 C 4.180884081201856 3.063845396403293 3.06384539640329 4.180884081201859 3.0599999999999996 5.560000000000004 L 3.0599999999999996 18.44 C 3.063845396403292 19.819115918798143 4.180884081201856 20.93615460359671 5.559999999999999 20.94 L 18.44 20.94 C 19.820711874576986 20.94 20.94 19.820711874576986 20.94 18.44 L 20.94 5.56 C 20.94 4.179288125423016 19.820711874576986 3.06 18.44 3.06 Z M 19.94 18.44 C 19.934008824176875 19.26593276979542 19.26593276979542 19.934008824176875 18.44 19.94 L 5.56 19.94 C 4.734067230204582 19.934008824176875 4.065991175823127 19.26593276979542 4.06 18.44 L 4.06 5.56 C 4.065991175823127 4.734067230204582 4.734067230204581 4.065991175823128 5.559999999999999 4.06 L 18.44 4.06 C 19.26593276979542 4.065991175823127 19.934008824176875 4.734067230204581 19.94 5.559999999999999 Z" stroke-linecap="round" />
</g>
		<g transform="matrix(33.33 0 0 33.33 -154.13 66.6)"  >
<path style="stroke: none; stroke-width: 1; stroke-dasharray: none; stroke-linecap: butt; stroke-dashoffset: 0; stroke-linejoin: miter; stroke-miterlimit: 4; fill: rgb(255,255,255); fill-rule: nonzero; opacity: 1;" vector-effect="non-scaling-stroke"  transform=" translate(-7.38, -14)" d="M 6.376 10.748 C 6.376 10.195715250169206 6.823715250169207 9.748 7.376000000000001 9.748 C 7.9282847498307945 9.748 8.376000000000001 10.195715250169206 8.376000000000001 10.748 L 8.376000000000001 17.247999999999998 L 8.376000000000001 17.247999999999998 C 8.376000000000001 17.80028474983079 7.9282847498307945 18.247999999999998 7.376000000000001 18.247999999999998 C 6.823715250169208 18.247999999999998 6.376000000000001 17.80028474983079 6.376000000000001 17.247999999999998 Z" stroke-linecap="round" />
</g>
		<g transform="matrix(33.33 0 0 33.33 -154.13 -175.2)"  >
<circle style="stroke: none; stroke-width: 1; stroke-dasharray: none; stroke-linecap: butt; stroke-dashoffset: 0; stroke-linejoin: miter; stroke-miterlimit: 4; fill: rgb(255,255,255); fill-rule: nonzero; opacity: 1;" vector-effect="non-scaling-stroke"  cx="0" cy="0" r="1" />
</g>
		<g transform="matrix(33.33 0 0 33.33 66.83 66.66)"  >
<path style="stroke: none; stroke-width: 1; stroke-dasharray: none; stroke-linecap: butt; stroke-dashoffset: 0; stroke-linejoin: miter; stroke-miterlimit: 4; fill: rgb(255,255,255); fill-rule: nonzero; opacity: 1;" vector-effect="non-scaling-stroke"  transform=" translate(-14.01, -14)" d="M 17.62 13.37 L 17.62 17.25 C 17.62 17.802284749830793 17.172284749830794 18.25 16.62 18.25 C 16.067715250169208 18.25 15.620000000000001 17.802284749830793 15.620000000000001 17.25 L 15.620000000000001 13.37 C 15.620000000000001 12.478060129023268 14.896939870976732 11.754999999999999 14.005 11.754999999999999 C 13.11306012902327 11.754999999999999 12.39 12.478060129023268 12.39 13.37 L 12.39 17.25 C 12.39 17.802284749830793 11.942284749830794 18.25 11.39 18.25 C 10.837715250169207 18.25 10.39 17.802284749830793 10.39 17.25 L 10.39 10.75 C 10.398574900658131 10.201306337732413 10.841306337732414 9.758574900658132 11.39 9.75 C 11.73505778675288 9.740550381151182 12.057535790398173 9.920984502238431 12.23 10.22 C 13.348947422379334 9.585112761587217 14.721260572491225 9.593881972537385 15.832002970134864 10.243017139991458 C 16.9427453677785 10.892152307445532 17.623947425852613 12.08348938699368 17.62 13.370000000000003 Z" stroke-linecap="round" />
</g>
</g>
</g>
</svg>