<?xml version="1.0" encoding="UTF-8" standalone="no" ?>
<!DOCTYPE svg PUBLIC "-//W3C//DTD SVG 1.1//EN" "http://www.w3.org/Graphics/SVG/1.1/DTD/svg11.dtd">
<svg xmlns="http://www.w3.org/2000/svg" xmlns:xlink="http://www.w3.org/1999/xlink" version="1.1" width="1080" height="1080" viewBox="0 0 1080 1080" xml:space="preserve">
<desc>Created with Fabric.js 5.2.4</desc>
<defs>
</defs>
<g transform="matrix(1 0 0 1 540 540)" id="d8bb10fa-a026-43d8-9099-cba17ad9d0df"  >
</g>
<g transform="matrix(1 0 0 1 540 540)" id="a4acb8f8-6232-4854-b242-f5d1e85dcdbc"  >
<rect style="stroke: none; stroke-width: 1; stroke-dasharray: none; stroke-linecap: butt; stroke-dashoffset: 0; stroke-linejoin: miter; stroke-miterlimit: 4; fill: rgb(255,255,255); fill-rule: nonzero; opacity: 1; visibility: hidden;" vector-effect="non-scaling-stroke"  x="-540" y="-540" rx="0" ry="0" width="1080" height="1080" />
</g>
<g transform="matrix(1 0 0 1 540 540)"  >
<g style="" vector-effect="non-scaling-stroke"   >
		<g transform="matrix(33.33 0 0 33.33 0 0)"  >
<path style="stroke: none; stroke-width: 1; stroke-dasharray: none; stroke-linecap: butt; stroke-dashoffset: 0; stroke-linejoin: miter; stroke-miterlimit: 4; fill: rgb(255,255,255); fill-rule: nonzero; opacity: 1;" vector-effect="non-scaling-stroke"  transform=" translate(-11.95, -12)" d="M 2 22 L 3.41152 16.8691 C 2.54422 15.3639 2.08876 13.6568 2.09099 11.9196 C 2.08095 6.44549 6.52644 2 11.99 2 C 14.6417 2 17.1315 3.02806 19.0062 4.9034 C 19.9303 5.82266 20.6627 6.91616 21.1611 8.12054 C 21.6595 9.32492 21.9139 10.6162 21.9096 11.9196 C 21.9096 17.3832 17.4641 21.8287 12 21.8287 C 10.3368 21.8287 8.71374 21.4151 7.26204 20.6192 L 2 22 Z M 7.49424 18.8349 L 7.79675 19.0162 C 9.06649 19.7676 10.5146 20.1644 11.99 20.1654 C 16.5264 20.1654 20.2263 16.4662 20.2263 11.9291 C 20.2263 9.73176 19.3696 7.65554 17.8168 6.1034 C 17.0533 5.33553 16.1453 4.72636 15.1453 4.31101 C 14.1452 3.89565 13.0728 3.68232 11.99 3.68331 C 7.44343 3.6839 3.74476 7.38316 3.74476 11.9202 C 3.74476 13.4724 4.17843 14.995 5.00502 16.3055 L 5.19645 16.618 L 4.35982 19.662 L 7.49483 18.8354 L 7.49424 18.8349 Z" stroke-linecap="round" />
</g>
		<g transform="matrix(33.33 0 0 33.33 0.93 0.11)"  >
<path style="stroke: none; stroke-width: 1; stroke-dasharray: none; stroke-linecap: butt; stroke-dashoffset: 0; stroke-linejoin: miter; stroke-miterlimit: 4; fill: rgb(255,255,255); fill-rule: evenodd; opacity: 1;" vector-effect="non-scaling-stroke"  transform=" translate(-11.98, -12)" d="M 9.52024 7.76662 C 9.33885 7.35303 9.13737 7.34298 8.96603 7.34298 C 8.81477 7.33294 8.65288 7.33294 8.48154 7.33294 C 8.32083 7.33294 8.04845 7.39321 7.81684 7.64549 C 7.58464 7.89719 6.95007 8.49217 6.95007 9.71167 C 6.95007 10.9318 7.83693 12.1111 7.95805 12.2724 C 8.07858 12.4337 9.67149 15.0139 12.192 16.0124 C 14.2883 16.839 14.712 16.6777 15.1657 16.6269 C 15.6189 16.5767 16.6275 16.0325 16.839 15.4476 C 17.0405 14.8733 17.0405 14.3693 16.9802 14.2682 C 16.9199 14.1678 16.748 14.1069 16.5064 13.9758 C 16.2541 13.8552 15.0446 13.2502 14.813 13.1693 C 14.5808 13.0889 14.4195 13.0487 14.2582 13.2904 C 14.0969 13.5427 13.623 14.0969 13.4724 14.2582 C 13.3306 14.4195 13.1799 14.4396 12.9377 14.3185 C 12.686 14.1979 11.8895 13.9356 10.9418 13.0889 C 10.2056 12.4331 9.71167 11.6171 9.56041 11.3755 C 9.41979 11.1232 9.54032 10.992 9.67149 10.8709 C 9.78257 10.7604 9.92378 10.579 10.0449 10.4378 C 10.1654 10.296 10.2056 10.1855 10.2966 10.0242 C 10.377 9.86292 10.3368 9.71167 10.2765 9.59114 C 10.2157 9.48006 9.74239 8.25997 9.52024 7.76603 L 9.52024 7.76662 Z" stroke-linecap="round" />
</g>
</g>
</g>
</svg>